<svg xmlns="http://www.w3.org/2000/svg" width="42.5" height="42.461" viewBox="0 0 42.5 42.461"><defs><style>.a{fill:none;stroke:#c39f6d;stroke-linecap:round;stroke-linejoin:round;stroke-width:1.5px;}</style></defs><g transform="translate(-392.25 -253.25)"><line class="a" x2="8" transform="translate(406 275)"></line><line class="a" x1="8" transform="translate(406 278)"></line><path class="a" d="M102.213,153a3.863,3.863,0,0,1-3.3,1.982H89" transform="translate(317.874 125.444)"></path><path class="a" d="M89,144h9.91a3.863,3.863,0,0,1,3.3,1.982h13.874" transform="translate(317.874 128.498)"></path><line class="a" x2="14" transform="translate(420 278)"></line><path class="a" d="M104.821,165.341l-1.965,1.283H94.267C90.3,166.625,87,165.3,87,162h28.408" transform="translate(318.553 122.39)"></path><g transform="translate(393 254)"><path class="a" d="M78.8,145.65a14.208,14.208,0,1,1,26.091-11.232" transform="translate(-71.224 -119.224)"></path><path class="a" d="M98.39,149.694h5.738a20.481,20.481,0,1,1,4.832-13.213" transform="translate(-68 -116)"></path></g></g></svg>