<svg xmlns="http://www.w3.org/2000/svg" width="41.542" height="41.852" viewBox="0 0 41.542 41.852"><defs><style>.a,.b{fill:none;stroke:#c39f6d;stroke-linecap:round;stroke-width:1.5px;}.a{stroke-linejoin:round;}.b{stroke-miterlimit:10;}</style></defs><g transform="translate(-180.25 -215.25)"><path class="a" d="M188.75,246h32.292a4.521,4.521,0,0,1-4.521,4.521h-31A4.521,4.521,0,0,1,181,246h2.583" transform="translate(0 -10.625)"></path><path class="a" d="M183.073,237.146c.688-9.331,8.789-16.146,18.682-16.146s17.994,6.815,18.682,16.146" transform="translate(-0.734 -1.771)"></path><g transform="translate(185.521 239.896)"><path class="b" d="M207,269.146s3.476-4.669,6.458-6.458c3.229-1.937,7.75-9.042,12.271-9.687" transform="translate(-194.729 -253)"></path><path class="a" d="M193.167,254a16.967,16.967,0,0,0-.185,4.821,1.984,1.984,0,0,1-.611,1.666,8.267,8.267,0,0,0-2.433,7.076L188,269.5" transform="translate(-188 -253.354)"></path><path class="a" d="M201,253l.491,1.967a5.152,5.152,0,0,1,.154,1.253v2.593a1.937,1.937,0,0,0,1.937,1.938h.646S205.521,253,208.1,253" transform="translate(-192.604 -253)"></path><path class="b" d="M202.944,265s-4.476.995-5.572,5.167" transform="translate(-191.319 -257.25)"></path><path class="a" d="M214.938,253S213,256.229,213,258.812L220.75,253" transform="translate(-196.854 -253)"></path></g><path class="a" d="M208,218.583a2.583,2.583,0,1,1,5.167,0" transform="translate(-9.562 0)"></path></g></svg>