<svg xmlns="http://www.w3.org/2000/svg" width="38.385" height="38.677" viewBox="0 0 38.385 38.677"><defs><style>.a{fill:none;stroke:#c39f6d;stroke-linecap:round;stroke-linejoin:round;stroke-width:1.5px;}</style></defs><g transform="translate(-293.25 -214.947)"><g transform="translate(294 226.462)"><path class="a" d="M329.548,244c0,1.784-5.734,3.569-14.274,3.569S301,245.784,301,244" transform="translate(-296.837 -237.809)"></path><g transform="translate(7.137 21.655)"><path class="a" d="M306,270a14.193,14.193,0,0,0,6.542,1.784" transform="translate(-306 -270)"></path><path class="a" d="M339.542,270A14.193,14.193,0,0,1,333,271.784" transform="translate(-316.942 -270)"></path></g><path class="a" d="M305.9,233.591c-1.04.118-2.034.263-2.974.435-5.346.979-8.921,2.812-8.921,5.161,0,0,0,13.679,10.111,17.843,0,0,1.19,2.974,8.327,2.974s8.327-2.974,8.327-2.974c10.111-4.163,10.111-17.843,10.111-17.843,0-1.98-2.541-3.594-6.542-4.638" transform="translate(-294 -233.591)"></path></g><path class="a" d="M325,232.2c1.322-1.616,12.707-19.287,17.461-15.732,5.062,3.786-11.183,14.079-12.992,15.732" transform="translate(-12.563 0)"></path><g transform="translate(306.941 215.999)"><path class="a" d="M316.5,216s1.661,1.283,0,3.569,0,3.569,0,3.569" transform="translate(-315.758 -216)"></path><path class="a" d="M321.5,224s1.661,1.283,0,3.569,0,3.569,0,3.569" transform="translate(-317.784 -219.242)"></path></g></g></svg>