<svg xmlns="http://www.w3.org/2000/svg" width="41.643" height="47.944" viewBox="0 0 41.643 47.944"><defs><style>.a{fill:rgba(0,0,0,0);}.a,.c{stroke:#c39f6d;stroke-linecap:round;stroke-linejoin:round;stroke-width:1.5px;}.b{fill:#c39f6d;}.c{fill:none;}</style></defs><g transform="translate(-801.25 -372.25)"><path class="a" d="M109.054,458.885a22.294,22.294,0,0,0-.572-5.021A21.794,21.794,0,0,0,97.584,451q-.473,0-.94.025A2.833,2.833,0,0,0,94,453.875h0a2.86,2.86,0,0,0,2.859,2.859h0a2.158,2.158,0,0,0,2.158-2.158h0" transform="translate(724.487 -51.91)"></path><path class="a" d="M84.607,469a11.474,11.474,0,0,0,20.634,0" transform="translate(727.147 -56.006)"></path><path class="a" d="M86.584,453.143a23.721,23.721,0,0,0-3.013,1.331A22.31,22.31,0,0,0,83,459.492" transform="translate(727.602 -52.517)"></path><circle class="b" cx="1.5" cy="1.5" r="1.5" transform="translate(826 408)"></circle><circle class="b" cx="1.5" cy="1.5" r="1.5" transform="translate(815 408)"></circle><path class="a" d="M96,471a4.046,4.046,0,0,0,4.3,0" transform="translate(723.921 -57.574)"></path><path class="a" d="M83.192,467.4c-1.734.409-2.839-1.047-3.248-2.781s.036-3.09,1.77-3.5" transform="translate(728.507 -54.776)"></path><path class="a" d="M113,467.4c1.734.409,3.176-1.047,3.585-2.781a2.678,2.678,0,0,0-2.106-3.5" transform="translate(719.108 -54.776)"></path><line class="c" y2="6" transform="translate(811 396)"></line><line class="c" y2="6" transform="translate(833 396)"></line><path class="a" d="M96.806,435.531a8.244,8.244,0,1,0,6.093-13.8h-2.321a10.747,10.747,0,0,0-19.014,0H79.244a8.244,8.244,0,1,0,6.093,13.8" transform="translate(731 -43)"></path><path class="a" d="M103.908,438a8.606,8.606,0,0,1-16.225,0" transform="translate(726.276 -49.229)"></path></g></svg>