<svg xmlns="http://www.w3.org/2000/svg" width="42.207" height="43.284" viewBox="0 0 42.207 43.284"><defs><style>.a{fill:none;stroke:#c39f6d;stroke-linecap:round;stroke-linejoin:round;stroke-width:1.5px;}</style></defs><g transform="translate(-407.25 -415.511)"><path class="a" d="M449.269,424.392c2.714-2.035,9.967-3.315,11.534-3.392-4.071,4.749.21,12.665-3.392,17.64-4.329,5.979-11.793,2.7-11.793,2.7" transform="translate(-12.096 -1.627)"></path><path class="a" d="M420.891,442.583c-2.286-2.941-7.463-3.392-12.891-2.714,3.23,2.856,1.362,10.03,4.749,13.569,4.071,4.254,9.5.678,9.5.678" transform="translate(0 -7.605)"></path><path class="a" d="M443.665,435.5c-3.275,2.43-5.855,8.462-7.068,14.248A29.062,29.062,0,0,0,436.1,458l.176,2.233a3.806,3.806,0,0,1-3.794,4.105h-.006a3.806,3.806,0,0,1-3.8-4.012l.06-1.108a9.161,9.161,0,0,0-.612-3.909,22.28,22.28,0,0,0-7.128-9.29" transform="translate(-4.18 -6.29)"></path><g transform="translate(422.926 416.251)"><path class="a" d="M430,418v10.832a5.429,5.429,0,0,0,3.936,5.219" transform="translate(-430 -416.913)"></path><line class="a" y2="11" transform="translate(3.769 0.01)"></line><line class="a" y2="11" transform="translate(7.769 0.01)"></line><path class="a" d="M443.735,418v10.832a5.414,5.414,0,0,1-2.67,4.654l.331,4.189" transform="translate(-433.558 -416.913)"></path><line class="a" y1="9.498" x2="0.513" transform="translate(2.2 16.692)"></line></g></g></svg>