<svg width="164" height="30" viewBox="0 0 164 30" fill="none" xmlns="http://www.w3.org/2000/svg">
<path d="M16.8531 15.7579C16.8531 15.8173 16.8234 16.2334 16.7639 17.0062H4.66655C4.88452 17.997 5.39973 18.7797 6.21216 19.3544C7.0246 19.929 8.03519 20.2164 9.24394 20.2164C10.0762 20.2164 10.8094 20.0975 11.4435 19.8597C12.0974 19.6021 12.7017 19.2058 13.2566 18.6707L15.7236 21.3458C14.2176 23.0698 12.0181 23.9318 9.12505 23.9318C7.32183 23.9318 5.72668 23.585 4.3396 22.8914C2.95251 22.1781 1.88247 21.1972 1.12948 19.9488C0.376495 18.7005 0 17.2837 0 15.6984C0 14.133 0.366587 12.7261 1.09976 11.4777C1.85275 10.2095 2.87325 9.22865 4.16126 8.5351C5.46908 7.82175 6.92552 7.46507 8.53058 7.46507C10.096 7.46507 11.5128 7.80193 12.781 8.47566C14.0492 9.14939 15.04 10.1203 15.7533 11.3885C16.4865 12.6369 16.8531 14.0934 16.8531 15.7579ZM8.5603 10.9724C7.51008 10.9724 6.62829 11.2696 5.91493 11.8641C5.20157 12.4586 4.76563 13.271 4.60711 14.3014H12.4838C12.3253 13.2908 11.8893 12.4883 11.176 11.8938C10.4626 11.2796 9.59071 10.9724 8.5603 10.9724Z" fill="#FDA53C"/>
<path d="M19.3457 13.4692H27.7574V17.1846H19.3457V13.4692Z" fill="#1C6979"/>
<path d="M48.1923 7.70285V21.0189C48.1923 23.9516 47.4294 26.1313 45.9036 27.558C44.3778 28.9847 42.1486 29.6981 39.2159 29.6981C37.6703 29.6981 36.204 29.5098 34.8169 29.1333C33.4298 28.7568 32.2805 28.2119 31.369 27.4986L33.2118 24.1695C33.8855 24.7244 34.7376 25.1603 35.768 25.4774C36.7984 25.8142 37.8288 25.9827 38.8592 25.9827C40.4643 25.9827 41.6433 25.6161 42.3963 24.8829C43.1691 24.1695 43.5555 23.0797 43.5555 21.6133V20.9297C42.3468 22.2573 40.6624 22.9212 38.5026 22.9212C37.0362 22.9212 35.6887 22.6041 34.4602 21.97C33.2514 21.3161 32.2904 20.4046 31.577 19.2355C30.8637 18.0664 30.507 16.7189 30.507 15.1931C30.507 13.6673 30.8637 12.3199 31.577 11.1508C32.2904 9.98164 33.2514 9.08003 34.4602 8.44594C35.6887 7.79202 37.0362 7.46507 38.5026 7.46507C40.821 7.46507 42.5845 8.22797 43.7933 9.75376V7.70285H48.1923ZM39.424 19.1166C40.6525 19.1166 41.6532 18.7599 42.426 18.0466C43.2186 17.3134 43.615 16.3622 43.615 15.1931C43.615 14.024 43.2186 13.0828 42.426 12.3694C41.6532 11.6362 40.6525 11.2696 39.424 11.2696C38.1954 11.2696 37.1848 11.6362 36.3922 12.3694C35.5996 13.0828 35.2033 14.024 35.2033 15.1931C35.2033 16.3622 35.5996 17.3134 36.3922 18.0466C37.1848 18.7599 38.1954 19.1166 39.424 19.1166Z" fill="#1C6979"/>
<path d="M60.1172 23.9318C58.4329 23.9318 56.917 23.585 55.5695 22.8914C54.2419 22.1781 53.2016 21.1972 52.4486 19.9488C51.6956 18.7005 51.3191 17.2837 51.3191 15.6984C51.3191 14.1132 51.6956 12.6964 52.4486 11.448C53.2016 10.1996 54.2419 9.22865 55.5695 8.5351C56.917 7.82175 58.4329 7.46507 60.1172 7.46507C61.8015 7.46507 63.3075 7.82175 64.6351 8.5351C65.9627 9.22865 67.0031 10.1996 67.7561 11.448C68.509 12.6964 68.8855 14.1132 68.8855 15.6984C68.8855 17.2837 68.509 18.7005 67.7561 19.9488C67.0031 21.1972 65.9627 22.1781 64.6351 22.8914C63.3075 23.585 61.8015 23.9318 60.1172 23.9318ZM60.1172 20.1272C61.3061 20.1272 62.2771 19.7309 63.0301 18.9382C63.8029 18.1258 64.1893 17.0459 64.1893 15.6984C64.1893 14.351 63.8029 13.2809 63.0301 12.4883C62.2771 11.6759 61.3061 11.2696 60.1172 11.2696C58.9282 11.2696 57.9474 11.6759 57.1746 12.4883C56.4018 13.2809 56.0154 14.351 56.0154 15.6984C56.0154 17.0459 56.4018 18.1258 57.1746 18.9382C57.9474 19.7309 58.9282 20.1272 60.1172 20.1272Z" fill="#1C6979"/>
<path d="M77.3648 23.9318C76.0372 23.9318 74.7392 23.7732 73.471 23.4562C72.2029 23.1193 71.1923 22.7032 70.4393 22.2078L71.9849 18.8788C72.6982 19.3346 73.5602 19.7111 74.5708 20.0083C75.5814 20.2857 76.5722 20.4244 77.5431 20.4244C79.5049 20.4244 80.4857 19.9389 80.4857 18.968C80.4857 18.5122 80.2182 18.1853 79.6832 17.9871C79.1482 17.789 78.3259 17.6205 77.2162 17.4818C75.9084 17.2837 74.8284 17.0558 73.9763 16.7982C73.1243 16.5406 72.3812 16.0848 71.7471 15.4309C71.1328 14.777 70.8257 13.8457 70.8257 12.6369C70.8257 11.6263 71.113 10.7346 71.6877 9.96182C72.2821 9.1692 73.1342 8.55492 74.2439 8.11898C75.3733 7.68304 76.701 7.46507 78.2268 7.46507C79.3563 7.46507 80.4758 7.59387 81.5855 7.85147C82.715 8.08926 83.6463 8.42612 84.3795 8.86206L82.8339 12.1613C81.427 11.3687 79.8913 10.9724 78.2268 10.9724C77.236 10.9724 76.4929 11.1111 75.9975 11.3885C75.5021 11.666 75.2544 12.0226 75.2544 12.4586C75.2544 12.954 75.522 13.3007 76.057 13.4989C76.592 13.697 77.4441 13.8853 78.6132 14.0636C79.921 14.2816 80.991 14.5194 81.8233 14.777C82.6555 15.0148 83.3788 15.4606 83.9931 16.1145C84.6074 16.7685 84.9145 17.68 84.9145 18.8491C84.9145 19.8399 84.6173 20.7216 84.0228 21.4945C83.4283 22.2673 82.5565 22.8716 81.4072 23.3076C80.2777 23.7237 78.9302 23.9318 77.3648 23.9318Z" fill="#1C6979"/>
<path d="M98.0893 22.9212C97.6336 23.258 97.0689 23.5156 96.3951 23.694C95.7412 23.8525 95.0477 23.9318 94.3145 23.9318C92.4122 23.9318 90.936 23.4463 89.8857 22.4753C88.8553 21.5044 88.3401 20.0776 88.3401 18.1952V11.6263H85.8731V8.05953H88.3401V4.16579H92.977V8.05953H96.9599V11.6263H92.977V18.1357C92.977 18.8095 93.1454 19.3346 93.4822 19.7111C93.8389 20.0677 94.3343 20.2461 94.9684 20.2461C95.7016 20.2461 96.3258 20.0479 96.841 19.6516L98.0893 22.9212Z" fill="#1C6979"/>
<path d="M100.692 7.70285H105.329V23.694H100.692V7.70285ZM103.011 5.47361C102.159 5.47361 101.465 5.22591 100.93 4.73053C100.395 4.23514 100.127 3.62086 100.127 2.88768C100.127 2.15451 100.395 1.54023 100.93 1.04484C101.465 0.549453 102.159 0.301758 103.011 0.301758C103.863 0.301758 104.556 0.539545 105.091 1.01512C105.626 1.49069 105.894 2.08516 105.894 2.79851C105.894 3.57132 105.626 4.21532 105.091 4.73053C104.556 5.22591 103.863 5.47361 103.011 5.47361Z" fill="#1C6979"/>
<path d="M119.352 7.46507C121.333 7.46507 122.929 8.05953 124.137 9.24846C125.366 10.4374 125.98 12.201 125.98 14.5392V23.694H121.343V15.2526C121.343 13.9844 121.066 13.0431 120.511 12.4289C119.956 11.7948 119.154 11.4777 118.104 11.4777C116.934 11.4777 116.003 11.8443 115.31 12.5775C114.616 13.2908 114.269 14.3609 114.269 15.7876V23.694H109.632V7.70285H114.061V9.57542C114.675 8.90169 115.438 8.38649 116.35 8.02981C117.261 7.65332 118.262 7.46507 119.352 7.46507Z" fill="#1C6979"/>
<path d="M146.022 15.7579C146.022 15.8173 145.992 16.2334 145.932 17.0062H133.835C134.053 17.997 134.568 18.7797 135.381 19.3544C136.193 19.929 137.204 20.2164 138.412 20.2164C139.245 20.2164 139.978 20.0975 140.612 19.8597C141.266 19.6021 141.87 19.2058 142.425 18.6707L144.892 21.3458C143.386 23.0698 141.187 23.9318 138.294 23.9318C136.49 23.9318 134.895 23.585 133.508 22.8914C132.121 22.1781 131.051 21.1972 130.298 19.9488C129.545 18.7005 129.169 17.2837 129.169 15.6984C129.169 14.133 129.535 12.7261 130.268 11.4777C131.021 10.2095 132.042 9.22865 133.33 8.5351C134.638 7.82175 136.094 7.46507 137.699 7.46507C139.265 7.46507 140.681 7.80193 141.95 8.47566C143.218 9.14939 144.208 10.1203 144.922 11.3885C145.655 12.6369 146.022 14.0934 146.022 15.7579ZM137.729 10.9724C136.679 10.9724 135.797 11.2696 135.083 11.8641C134.37 12.4586 133.934 13.271 133.776 14.3014H141.652C141.494 13.2908 141.058 12.4883 140.344 11.8938C139.631 11.2796 138.759 10.9724 137.729 10.9724Z" fill="#1C6979"/>
<path d="M156.837 23.9318C155.133 23.9318 153.597 23.585 152.23 22.8914C150.882 22.1781 149.822 21.1972 149.049 19.9488C148.296 18.7005 147.92 17.2837 147.92 15.6984C147.92 14.1132 148.296 12.6964 149.049 11.448C149.822 10.1996 150.882 9.22865 152.23 8.5351C153.597 7.82175 155.133 7.46507 156.837 7.46507C158.521 7.46507 159.987 7.82175 161.236 8.5351C162.504 9.22865 163.425 10.2293 164 11.5372L160.403 13.4692C159.571 12.0028 158.372 11.2696 156.807 11.2696C155.598 11.2696 154.598 11.666 153.805 12.4586C153.012 13.2512 152.616 14.3311 152.616 15.6984C152.616 17.0657 153.012 18.1456 153.805 18.9382C154.598 19.7309 155.598 20.1272 156.807 20.1272C158.392 20.1272 159.591 19.394 160.403 17.9277L164 19.8894C163.425 21.1576 162.504 22.1484 161.236 22.8617C159.987 23.5751 158.521 23.9318 156.837 23.9318Z" fill="#1C6979"/>
</svg>
